<svg width="512" height="691" viewBox="0 0 512 691" fill="none" xmlns="http://www.w3.org/2000/svg">
<path fill-rule="evenodd" clip-rule="evenodd" d="M422.647 610.56C431.357 610.14 427.854 594.902 427.229 589.306C420.333 568.867 421.954 546.568 419.241 525.145C417.552 505.146 415.381 485.209 413.554 465.225C409.968 424.661 384.211 342.081 354.818 328.801C351.116 312.553 335.823 297.386 316.474 297.386C303.278 281.763 287.394 270.769 267.021 272.989C258.601 273.372 250.437 282.302 242.369 284.027C237.852 284.65 197.767 283.046 189.737 287.816C184.144 290.688 179.094 295.995 180.739 302.753C183.363 310.939 175.209 302.081 158.198 310.819C123.51 331.654 144.238 359.527 145.156 360.39C123.51 390.511 104.59 414.947 95.8359 451.763C90.1624 479.096 90.8011 507.312 86.0475 534.786C84.3691 544.312 81.7942 553.512 79.008 562.763C75.9882 574.869 74.5199 605.044 72.8555 605.314C69.8236 606.067 74.6077 612.293 77.8203 612.298C166.89 627.074 257.364 612.91 346.912 610.596C372.149 609.718 397.412 609.516 422.647 610.56Z" fill="#EFBA8C"/>
<path fill-rule="evenodd" clip-rule="evenodd" d="M242.481 310.55C242.481 320.03 275.396 355.257 286.756 352.933C294.328 351.383 305.77 341.279 321.081 322.62V310.55L317.774 297.409C336.506 298.069 351.199 312.919 354.818 328.801C383.917 341.949 409.452 423.016 413.44 463.996L413.554 465.225C415.381 485.209 417.552 505.146 419.241 525.145C421.954 546.568 420.333 568.867 427.229 589.306L427.27 589.653C427.989 595.506 431.183 610.148 422.647 610.56C397.412 609.516 372.149 609.718 346.912 610.596C257.364 612.91 166.89 627.074 77.8203 612.298C74.6077 612.293 69.8236 606.067 72.8555 605.314C74.5199 605.044 75.9882 574.87 79.008 562.763L79.5812 560.85C82.1451 552.242 84.4848 543.655 86.0475 534.786C90.8011 507.312 90.1624 479.096 95.8359 451.763C104.59 414.947 123.51 390.511 145.156 360.39C144.238 359.527 123.51 331.654 158.198 310.819C175.209 302.081 183.363 310.939 180.739 302.753C179.094 295.995 184.144 290.688 189.737 287.816C197.767 283.046 237.852 284.65 242.369 284.027C244.468 283.578 246.573 282.642 248.687 281.496L248.32 282.717C244.428 295.764 242.481 305.042 242.481 310.55Z" fill="#464767"/>
<path fill-rule="evenodd" clip-rule="evenodd" d="M287.648 363.049C287.69 362.641 288.239 362.642 288.282 363.049L288.911 369.12C289.676 376.535 290.412 383.935 290.946 391.385C291.612 400.674 292.057 409.962 292.272 419.272C293.02 451.697 293.169 484.14 293.232 516.574C297.618 516.27 302.004 515.977 306.392 515.694C309.37 515.502 312.347 515.318 315.325 515.136L322.918 514.676V514.676L326.044 514.484C328.157 514.353 330.557 513.821 332.034 515.693C332.625 516.442 332.922 517.415 332.371 518.305C331.099 520.356 329.146 520.284 326.937 520.373C324.853 520.457 322.769 520.54 320.685 520.62C316.219 520.794 311.754 520.957 307.286 521.083C302.598 521.214 297.912 521.321 293.226 521.401C293.178 535.093 292.612 548.768 291.999 562.445L291.722 568.6C290.972 585.245 290.166 601.904 289.021 618.526C288.927 619.887 287.002 619.884 286.908 618.526C285.619 599.807 284.768 581.047 283.924 562.303C283.312 548.712 282.956 535.118 282.786 521.522C282.167 521.526 281.547 521.535 280.928 521.537C263.338 521.614 245.753 521.69 228.164 521.525C228.193 521.56 228.222 521.595 228.241 521.641C229.514 524.646 229.635 528.481 229.604 531.706C229.569 535.405 229.07 539.059 228.219 542.656C225.167 555.542 217.295 567.083 208.329 576.626L208.037 576.936C205.922 579.171 203.496 581.416 202.197 584.263C200.871 587.169 200.411 590.569 199.756 593.692L199.68 594.051L197.121 605.872C196.307 609.627 196.077 615.103 193.105 617.812C190.332 620.34 186.659 619.019 185.354 615.765C184.335 613.225 185.35 610.435 185.953 607.897L190.682 588.019C191.459 584.777 192.308 581.514 193.985 578.602C195.702 575.619 198.22 573.457 200.79 571.245C205.655 567.056 210.122 562.26 213.899 557.067C217.675 551.876 220.902 546.154 223.165 540.138C224.298 537.126 225.226 533.997 225.867 530.842C226.476 527.849 226.47 524.749 227.122 521.787C227.166 521.583 227.339 521.442 227.537 521.38C227.49 521.248 227.562 521.07 227.746 521.058L242.132 520.133C254.919 519.308 267.706 518.462 280.481 517.496L282.739 517.332V517.332C282.564 499.192 282.712 481.048 283.04 462.901C283.34 446.26 283.347 429.614 283.841 412.975C284.088 404.717 284.618 396.478 285.208 388.237C285.812 379.809 286.779 371.452 287.648 363.049ZM152.576 459.539C152.422 458.615 153.585 458.042 154.121 458.887C160.246 468.543 163.2 479.032 164.444 490.332C165.544 500.305 165.22 510.421 164.672 520.42C164.088 531.085 163.407 541.747 162.718 552.406L161.659 568.751V568.751L159.002 609.729C158.812 612.66 158.147 615.325 155.623 616.688C155.304 616.955 154.971 617.194 154.583 617.401C153.219 618.13 151.411 617.762 150.623 616.363L150.939 616.571C151.214 616.744 150.905 616.502 150.011 615.845L149.253 614.864V614.864C148.701 614.035 148.349 613.221 148.208 612.236C147.988 610.705 148.273 609.027 148.373 607.489L150.114 580.619V580.619C151.469 559.73 153.05 538.846 154.242 517.946C154.798 508.206 155.187 498.456 154.923 488.698C154.661 478.994 154.167 469.126 152.576 459.539ZM205.567 279.664L205.907 279.607C218.073 277.586 231.303 277.964 242.423 283.83C242.515 283.878 242.473 284.031 242.369 284.027L238.79 283.884C227.46 283.44 216.165 283.177 205.024 285.839L203.884 286.114C199.872 287.093 195.682 288.291 192.46 290.941C189.38 293.474 187.846 297.382 186.371 300.979L186.174 301.454C184.678 305.007 182.784 308.377 179.504 310.598C175.256 313.475 170.148 313.123 165.277 313.514C156.701 314.203 149.689 320.419 146.201 328.025C144.088 332.631 143.187 337.795 143.009 342.831C142.917 345.396 142.904 348.06 143.246 350.607C143.355 351.422 144.362 354.389 144.875 354.318C146.016 354.16 147.059 354.755 147.415 355.666C150.232 352.944 153.131 350.3 156.124 347.751C163.582 341.398 171.616 335.641 180.077 330.694C186.534 326.917 193.345 323.176 200.398 320.348C199.839 320.336 199.288 320.447 198.755 320.724C198.521 320.846 198.289 320.553 198.474 320.359C200.695 318.022 203.356 317.689 206.039 318.312C206.611 318.13 207.184 317.954 207.759 317.787C208.045 317.703 208.188 318.098 207.954 318.25L207.295 318.671V318.671C210.222 319.652 213.095 321.579 215.369 323.099C221.904 327.467 227.655 332.806 233.486 338.045L234.546 338.995C239.678 343.577 244.94 348.031 250.771 351.707C253.823 353.631 257.029 355.411 260.392 356.735C263.276 357.872 267.972 358.587 269.322 361.635C270.523 363.094 270.021 364.956 268.615 365.937C266.244 368.548 261.5 366.861 258.674 365.774C255.267 364.463 251.966 362.888 248.819 361.04C242.707 357.452 237.073 352.991 231.824 348.246C226.342 343.289 221.171 338.024 215.839 332.912C213.529 330.697 211.272 328.43 208.958 326.219L207.796 325.118C206.615 324.01 204.933 322.284 203.134 321.239C199.745 323.261 196.304 325.199 192.946 327.273C188.258 330.168 183.708 333.271 179.229 336.477C170.605 342.648 162.433 349.56 154.846 356.968C140.932 370.555 129.078 386.07 118.722 402.498L117.935 403.75C112.051 413.152 106.486 422.859 102.54 433.249C98.1981 444.682 96.0866 456.705 94.9395 468.841C93.8011 480.891 93.4171 493.001 92.1447 505.039C90.8399 517.386 88.2691 529.46 85.3449 541.511L84.6475 544.368C82.0016 555.161 79.2707 565.954 77.9106 577.001C77.1845 582.903 76.7478 588.885 76.8465 594.834C76.9456 600.817 77.8858 606.668 78.6443 612.589C78.935 614.857 76.7031 616.75 74.7061 617.051C72.4093 617.396 70.4361 615.931 69.7222 613.797C67.4966 607.145 67.0923 599.792 67.1622 592.81C67.2325 585.722 68.1371 578.681 69.4099 571.715C71.9131 558.013 75.776 544.594 79.0076 531.057C81.8556 519.124 83.767 507.171 84.7973 494.947C85.8669 482.265 86.5073 469.54 88.4584 456.95C90.3843 444.52 94.0079 432.647 99.4727 421.313C104.448 410.993 110.651 401.28 117.154 391.865C125.051 380.433 133.724 369.554 143.418 359.642C142.547 359.604 141.653 359.323 140.832 358.811C138.32 357.244 137.15 354.178 136.79 351.379C135.948 344.831 136.151 337.995 137.835 331.593C140.552 321.265 147.602 312.089 157.819 308.366C160.449 307.408 163.245 307.058 166.032 306.989C168.677 306.923 171.565 307.268 174.117 306.43C178.179 305.094 179.92 300.31 181.445 296.683L181.515 296.517C183.471 291.895 185.818 287.934 190.054 285.048C194.573 281.969 200.235 280.569 205.567 279.664V279.664ZM321.171 297.941C324.827 296.673 329.398 297.824 332.974 298.932C336.957 300.167 340.638 302.442 343.794 305.143C347.123 307.992 349.875 311.509 351.819 315.439L352.004 315.818C353.78 319.463 355.802 324.467 354.907 328.472C354.881 328.585 354.852 328.695 354.818 328.801C362.073 332.372 368.772 336.845 374.606 342.515C381.399 349.116 387.151 356.628 392.018 364.743C411.351 396.975 414.753 435.685 417.037 472.444L417.606 481.764C418.846 501.889 420.297 521.967 424.066 541.815L424.341 543.248C428.369 564.028 434.136 584.968 433.552 606.286C433.377 612.673 423.938 612.629 423.664 606.286C422.634 582.408 417.063 559.354 413.29 535.85C406.651 494.497 409.977 451.865 400.571 410.927C396.88 394.862 391.162 379.278 382.997 364.937C378.963 357.853 374.348 351.007 368.943 344.896C364.292 339.637 359.458 334.576 354.023 330.155C352.286 331.895 348.816 331.008 347.909 328.472C347.286 326.729 347.468 324.691 347.068 322.865C346.697 321.17 346.186 319.49 345.504 317.895C344.146 314.715 342.152 311.661 339.85 309.087C337.364 306.305 334.506 303.994 331.308 302.085C328.088 300.164 324.567 299.59 321.171 298.186C321.057 298.138 321.046 297.985 321.171 297.941ZM335.376 518.942C335.381 518.774 335.579 518.695 335.701 518.807C336.982 519.987 337.757 521.68 338.701 523.131C339.789 524.804 340.931 526.443 342.129 528.039C344.53 531.238 347.202 534.253 349.895 537.206C352.4 539.953 355.07 542.584 357.84 545.064C360.841 547.752 364.203 550.15 366.93 553.125C372.618 559.335 373.537 567.858 374.738 575.86L374.869 576.725C375.601 581.474 376.257 586.236 376.848 591.005C377.136 593.324 377.422 595.646 377.657 597.971L377.728 598.708C377.937 600.985 377.994 603.294 376.686 605.284C375.287 607.412 372.105 608.158 370.214 606.117C366.964 602.611 367.573 596.385 367.15 591.875C366.801 588.146 366.405 584.421 365.961 580.702L365.736 578.843C365.213 574.613 364.788 570.298 363.821 566.14C362.967 562.479 361.342 559.716 358.674 557.064C355.987 554.392 353.195 551.898 350.715 549.021C348.084 545.97 345.711 542.698 343.573 539.283C341.744 536.362 340.278 533.183 338.935 530.009L338.713 529.48C337.415 526.383 335.274 522.353 335.376 518.942ZM382.3 385.951C382.328 385.519 382.966 385.512 382.976 385.951C383.056 389.665 383.134 393.379 383.211 397.094C383.831 427.024 383.449 457.026 386.451 486.854C387.868 500.918 390.475 514.774 393.493 528.574C395.037 535.635 396.657 542.679 398.196 549.741C399.696 556.623 401.304 563.539 402.494 570.486C403.663 577.313 404.711 584.193 405.181 591.108L405.239 592.01C405.441 595.36 406.407 600.286 404.563 603.255C402.564 606.472 398.738 606.53 396.597 603.459C394.586 600.577 395.086 595.449 394.731 592.01C394.37 588.506 393.988 585 393.555 581.504C392.709 574.686 391.594 567.883 390.435 561.111C388.02 547.008 384.518 533.082 381.934 519.002C379.284 504.574 377.401 490.042 377.322 475.352C377.243 460.538 378.811 445.752 379.603 430.969C380.407 415.956 381.321 400.953 382.3 385.951ZM240.923 292.855C241.726 290.15 244.562 288.458 247.328 289.218C249.864 289.915 251.957 292.992 250.966 295.625C249.884 298.498 247.994 300.948 246.4 303.559C244.928 305.972 242.781 307.872 241.281 310.242L242.934 312.023C243.76 312.912 244.589 313.796 245.428 314.664L248.31 317.649C250.554 319.97 252.813 322.278 255.135 324.518C261.965 331.105 268.902 337.477 276.55 343.118C278.291 344.402 280.045 345.678 281.849 346.874L282.522 347.32C283.759 348.13 285.14 348.926 286.635 348.789C290.267 348.455 293.549 344.597 296.046 342.196L296.176 342.071C302.362 336.185 308.09 329.749 313.098 322.829C314.21 321.291 315.286 319.728 316.335 318.146C313.914 315.317 314.492 309.796 314.358 306.366C314.264 303.954 314.257 301.541 314.244 299.128L314.237 298.641C314.208 297.079 314.137 295.58 315.151 294.295C315.21 294.22 315.332 294.223 315.408 294.262C316.796 294.989 317.224 296.208 317.817 297.574L317.878 297.716C318.6 299.357 319.29 301.012 319.989 302.662C320.72 304.389 321.391 306.142 322.07 307.89C322.387 308.703 322.689 309.519 322.984 310.34C323.164 310.864 323.35 311.386 323.541 311.906L323.586 311.947C323.839 312.161 324.053 312.387 324.237 312.62C325.012 313.008 325.627 313.714 325.916 314.752C326.545 317.011 325.244 318.852 324.083 320.645C319.369 327.929 313.995 334.87 308.021 341.167C305.054 344.295 301.933 347.283 298.683 350.116L298.115 350.609C295.196 353.117 292.026 355.494 288.128 356.081C283.566 356.767 279.853 354.498 276.36 351.884L276.012 351.622C272.701 349.115 269.457 346.521 266.313 343.807C259.905 338.273 253.808 332.332 248.397 325.814C243.134 319.474 237.932 312.384 234.687 304.755C234.49 304.291 235.01 303.804 235.417 304.192C237.002 305.701 238.527 307.292 240.033 308.903C240.075 306.531 239.638 304.14 239.881 301.753C240.178 298.853 240.092 295.648 240.923 292.855Z" fill="black"/>
<path fill-rule="evenodd" clip-rule="evenodd" d="M350.05 218.164C349.082 209.638 350.335 191.818 350.419 190.735C350.95 183.89 347.75 156.862 341.7 159.352C331.553 151.301 318.037 149.524 305.399 148.674C279.148 146.91 251.222 150.96 230.952 168.666C220.927 177.861 211.168 191.234 211.952 205.158C202.844 218.357 190.004 236.463 201.352 251.893C205.21 256.823 211.341 258.659 216.186 262.392C225.933 270.272 232.048 281.579 241.888 289.411C267.956 312.888 312.219 317.792 337.831 291.089C357.635 271.75 354.433 242.819 350.95 218.164C348.607 201.589 351.939 234.798 350.05 218.164Z" fill="#ECBA8B"/>
<path fill-rule="evenodd" clip-rule="evenodd" d="M270.332 112.519C277.352 111.099 284.561 110.215 291.731 110.481L292.284 110.503C297.678 110.719 304.51 111.197 309.216 114.341C309.486 114.068 309.922 113.929 310.317 114.117C315.909 116.793 322.06 118.727 327.948 120.649C333.809 122.561 339.89 123.824 346.033 124.333C348.344 124.524 350.322 127.026 348.859 129.269C348.511 129.804 348.171 130.344 347.834 130.885C348.399 130.826 348.963 130.765 349.528 130.708C351.387 130.52 353.244 132.508 353.134 134.322C353.065 135.463 352.942 136.59 352.761 137.704C353.469 137.689 354.172 137.796 354.852 138.084C358.296 139.541 358.056 143.651 357.798 146.779C357.441 151.119 355.822 155.715 352.815 158.963C355.06 161.301 356.649 164.092 357.597 167.406C358.285 169.827 358.668 172.405 358.479 174.925L358.419 175.679C358.185 178.414 357.721 181.441 355.758 183.408C354.75 184.422 353.509 184.792 352.326 184.675C353.041 190.976 353.5 197.314 353.932 203.629L354.134 206.647C355.097 221.242 355.821 235.933 355.632 250.552C355.456 264.214 352.762 277.475 344.402 288.568C336.787 298.669 325.854 306.116 313.486 308.947C306.82 310.475 300.015 310.583 293.269 309.609C289.999 309.136 286.707 308.41 283.603 307.265C280.168 305.994 277.699 304.123 275.387 301.32C274.294 299.99 274.82 297.159 276.997 297.425C280.29 297.825 283.296 298.308 286.453 299.284L286.905 299.427C290.049 300.436 293.305 301.189 296.592 301.509C303.326 302.163 310.161 301.505 316.611 299.458C327.113 296.123 336.158 288.69 341.955 279.35C348.836 268.28 349.614 255.713 349.515 242.984C349.408 229.016 348.955 215.04 348.215 201.086L348.089 198.761C347.698 191.58 347.32 184.395 346.988 177.21C346.884 174.957 346.727 172.685 346.443 170.436C343.848 168.912 341.523 166.811 340.007 164.22C336.963 165.482 333.76 166.392 330.814 167.118C323.99 168.8 316.904 169.209 309.958 168.155C308.084 168.931 306.173 169.613 304.233 170.2C303.708 170.433 303.184 170.662 302.66 170.886C297.982 172.892 293.237 174.591 288.299 175.835L287.086 176.139C284.488 176.781 281.665 177.413 278.9 177.611C278.445 177.787 277.955 177.936 277.419 178.067C274.901 178.68 272.288 178.874 269.707 178.657C267.192 178.445 265.375 175.899 266.76 173.514C267.772 171.774 268.794 170.039 269.823 168.308C266.239 169.804 262.537 171.049 258.805 172.103C255.036 173.167 251.213 174.064 247.385 174.889C245.338 175.326 243.284 175.714 241.242 176.151C239.78 176.462 237.536 176.624 236.343 177.589C235.026 178.648 234.653 181.118 234.153 182.642C233.496 184.621 232.88 186.608 232.318 188.619C231.199 192.63 230.281 196.701 229.571 200.812C228.86 204.927 228.383 209.083 228.117 213.252C227.852 217.417 227.969 221.609 227.542 225.756C227.312 227.956 224.956 229.087 223.216 227.55C223.011 227.37 222.806 227.187 222.602 227.003L222.298 226.725C220.809 225.373 219.365 223.94 218.174 222.326C217.958 222.028 217.751 221.717 217.558 221.402C217.526 221.402 217.499 221.393 217.468 221.37L217.137 221.121C213.5 218.408 207.423 214.87 203.876 219.378C202.746 220.814 202.167 222.643 201.687 224.407L200.844 227.564C200.299 229.625 199.786 231.698 199.486 233.806C198.807 238.53 199.149 243.975 202.392 247.762C203.687 249.276 205.473 250.358 207.465 250.642C208.576 250.795 209.673 250.606 210.775 250.466C211.895 250.326 212.974 250.552 214.095 250.444C215.876 250.268 216.654 252.404 215.988 253.748C215.628 254.469 215.205 255.091 214.724 255.618C215.111 255.952 215.48 256.312 215.835 256.691C216.888 257.029 217.832 257.755 218.538 258.715C219.109 259.49 219.406 260.333 219.456 261.221C219.518 261.442 219.572 261.667 219.622 261.897L220.587 263.467C220.799 263.811 221.011 264.151 221.223 264.485C223.678 268.361 226.404 271.642 229.791 274.735C233.052 277.71 236.591 280.373 239.654 283.565L240.015 283.944C242.871 286.96 245.881 290.61 244.763 294.996C244.475 296.123 242.905 296.934 241.88 296.172C238.584 293.72 236.924 289.835 234.127 286.86C231.248 283.795 228.059 281.041 225.172 277.984C222.442 275.1 220.287 271.832 218.664 268.235C218.016 268.951 217.072 269.461 215.763 269.659C213.514 269.997 211.418 268.676 210.438 266.725C209.808 267.004 209.165 267.257 208.517 267.455C205.108 268.501 202.963 264.701 204.249 261.893C204.937 260.387 205.796 259.08 206.863 257.98C203.529 257.52 200.138 255.794 197.948 253.639C192.452 248.226 191.697 240.09 192.934 232.855C193.59 229.019 194.723 225.139 196.194 221.537C196.45 220.91 196.725 220.279 197.026 219.657C196.86 219.653 196.689 219.581 196.581 219.441C195.587 218.08 194.377 216.966 193.639 215.443C192.96 214.046 192.205 212.63 191.669 211.174C190.568 208.195 190.028 204.832 189.668 201.681C188.926 195.231 189.214 188.822 190.199 182.412C191.876 171.495 195.928 161.047 201.896 151.88C201.571 151.709 201.26 151.502 200.97 151.258L200.826 151.133L200.593 150.922C198.89 149.377 199.037 146.482 200.593 144.917L201.085 144.423C201.707 143.804 202.244 143.313 203.249 142.638C203.398 142.539 203.549 142.445 203.703 142.357C203.176 141.383 202.994 140.243 203.36 138.986C204.638 134.607 210.925 134.762 214.91 136.672C219.319 132.728 224.208 129.305 229.507 126.532C242.128 119.933 256.398 115.331 270.332 112.519ZM205.095 227.866C207.452 227.095 210.582 228.713 212.7 229.687C215.385 230.922 217.67 232.747 219.883 234.676C220.985 235.641 221.182 237.219 220.908 238.566C220.881 238.702 220.854 238.841 220.823 238.981C220.53 240.419 218.929 241.55 217.512 241.51C214.548 241.429 213.137 238.864 211.459 236.691C211.261 237.043 211.014 237.367 210.708 237.611L210.501 237.773C209.805 238.304 209.037 238.729 208.117 238.688C207.465 238.657 206.84 238.49 206.264 238.188C204.825 237.426 204.191 235.56 204.582 234.041C204.825 233.085 205.382 232.337 206.111 231.819L205.84 231.632C205.258 231.227 204.728 230.8 204.315 230.169L204.222 230.02H204.258C203.808 229.245 204.101 228.19 205.095 227.866Z" fill="black"/>
<path fill-rule="evenodd" clip-rule="evenodd" d="M316.413 273.226C313.093 274.188 309.529 274.274 306.145 273.281C303.075 272.38 299.923 270.397 297.664 267.774C295.657 265.443 294.357 262.611 294.408 259.587C294.414 259.242 294.538 258.954 294.728 258.73C294.932 258.489 295.218 258.324 295.523 258.252C295.838 258.178 296.171 258.205 296.454 258.333C296.71 258.45 296.93 258.648 297.067 258.937C297.414 259.393 297.76 259.842 298.107 260.279C300.899 263.727 303.602 266.303 307.8 267.227C310.078 267.728 312.353 267.506 314.44 266.741C316.674 265.922 318.694 264.482 320.276 262.639C320.992 261.806 321.836 261.466 322.662 261.461C323.597 261.454 324.522 261.889 325.219 262.584C325.904 263.267 326.362 264.196 326.404 265.167C326.44 266.019 326.162 266.909 325.423 267.704C322.987 270.32 319.829 272.237 316.413 273.226ZM316.311 230.048C319.714 232.117 324.9 236.941 321.239 242.071C316.929 246.593 310.724 241.408 307.666 239.063C304.831 237.245 301.645 241.92 304.276 244.042C326.371 260.402 335.338 230.589 318.032 227.615C316.127 227.288 315.419 229.408 316.311 230.048ZM284.473 220.944C283.379 220.245 282.093 220.004 280.666 220.653C279.552 221.16 277.597 222.85 276.237 225.071C275.306 226.591 274.647 228.373 274.784 230.23C274.816 230.661 274.657 230.979 274.405 231.214C274.207 231.4 273.92 231.536 273.583 231.579C273.297 231.615 272.977 231.583 272.717 231.501C272.222 231.347 271.96 231.026 271.862 230.764C270.909 228.234 271.319 225.411 272.387 222.864C273.828 219.427 276.444 216.548 278.158 215.62C281.091 214.031 284.551 213.958 287.488 215.577C289.988 216.955 291.552 219.179 293.107 221.446C293.437 221.928 293.765 222.406 294.104 222.876C294.784 223.818 294.851 224.752 294.588 225.553C294.297 226.441 293.553 227.19 292.624 227.581C291.765 227.944 290.768 227.995 289.885 227.622C289.14 227.308 288.456 226.695 288.023 225.655C287.294 223.904 286.08 221.972 284.473 220.944V220.944ZM340.03 224.841C339.28 225.231 338.694 225.349 337.863 225.1C337.404 224.962 336.95 224.697 336.594 224.341C336.242 223.989 335.987 223.551 335.888 223.064C335.645 221.864 334.989 220.741 334.053 220.009C333.254 219.383 332.244 219.051 331.125 219.238C329.917 219.44 328.766 220.215 327.973 221.128C327.708 221.434 327.5 221.781 327.291 222.126C326.901 222.771 326.521 223.37 325.983 223.844C325.778 224.024 325.471 224.149 325.173 224.149C325.052 224.149 324.929 224.129 324.812 224.093C323.609 222.886 323.378 221.97 323.417 221.062C323.457 220.11 323.833 219.145 324.439 218.246C325.863 216.135 328.565 214.405 330.388 214.013C332.885 213.476 335.365 214.121 337.353 215.516C339.399 216.951 340.915 219.179 341.388 221.69C341.501 222.295 341.453 222.948 341.223 223.514C340.998 224.067 340.606 224.541 340.03 224.841ZM289.981 198.444C288.482 199.904 286.708 200.13 284.914 200.331C283.917 200.444 283.121 200.535 282.338 200.712C280.185 201.198 278.057 201.93 276.116 202.984C274.086 204.086 271.875 205.415 270.284 207.118C269.906 207.523 269.549 207.948 269.192 208.374C268.866 208.762 268.552 209.136 268.222 209.497C267.842 209.911 267.481 210.345 267.123 210.778C266.901 211.144 266.857 211.234 266.813 211.327C266.745 211.468 266.667 211.625 266.578 211.794C266.456 212.025 266.312 212.278 266.162 212.507C265.913 212.926 265.779 213.042 265.663 213.094C265.471 213.179 265.289 213.221 265.112 213.198C264.947 213.177 264.791 213.098 264.637 212.967C263.867 212.317 263.64 211.25 263.664 210.118C263.699 208.399 264.333 206.496 264.917 205.327C266.276 202.609 268.16 199.783 270.425 197.755C273.011 195.439 275.839 193.686 279.088 192.478C281.106 191.728 283.444 191.038 285.643 191.125C287.227 191.188 288.738 191.659 289.986 192.834C290.753 193.556 291.12 194.582 291.12 195.607C291.12 196.653 290.738 197.706 289.981 198.444ZM343.077 211.815C342.982 211.972 342.85 212.079 342.703 212.144C342.55 212.212 342.378 212.231 342.213 212.203C342.049 212.176 341.893 212.101 341.769 211.988C341.651 211.879 341.56 211.734 341.52 211.557C340.525 207.187 338.593 203.935 334.47 201.839C332.441 200.807 330.109 200.152 327.901 199.629C327.259 199.477 326.581 199.379 325.898 199.279C323.758 198.967 321.603 198.609 320.208 196.879C319.367 195.837 319.015 194.504 319.214 193.286C319.402 192.138 320.072 191.086 321.291 190.455C324.326 188.886 328.096 190.426 331.161 191.738C331.388 191.835 331.611 191.93 331.829 192.022C334.826 193.287 337.559 194.957 339.806 197.345C341.588 199.24 343.24 202.04 343.905 204.921C344.458 207.318 344.328 209.765 343.077 211.815Z" fill="black"/>
<path fill-rule="evenodd" clip-rule="evenodd" d="M364.21 218.29C359.913 247.359 329.916 250.573 324.587 221.715C325.442 221.341 326.058 220.603 325.929 219.172C325.899 212.883 327.851 206.236 333.523 202.739C339.385 199.13 346.245 198.772 353.029 198.863C365.974 198.555 365.702 209.376 364.21 218.29M319.891 205.648C315.828 205.477 310.689 205.62 307.049 208.096C306.049 205.401 303.449 202.524 300.822 200.985C310.585 201.271 320.635 200.31 330.471 199.564C328.117 201.169 325.926 203.581 324.503 206.369C323.182 205.664 321.29 205.73 319.891 205.648M301.984 221.372C290.718 260.153 262.598 243.25 259.533 238.28C254.003 230.055 252.963 210.063 257.779 204.717C264.674 199.883 274.435 201.127 282.58 201.009C297.544 201.211 308.172 205.688 301.984 221.372M377.511 203.535C374.451 203.135 371.18 203.054 368.334 204.402C367.458 200.678 364.707 197.564 361.601 196.193C361.226 195.722 361.282 195.469 359.998 195.539C352.113 193.169 343.289 194.423 335.712 196.854C323.745 197.862 311.19 198.656 299.122 200.045C287.818 194.968 253.702 194.224 251.582 206.738C248.915 206.339 244.374 204.24 242.133 207.087C225.695 204.3 208.71 208.174 192.202 209.899C188.046 210.664 185.906 218.912 190.623 218.799C193.275 218.079 190.541 213.663 194.112 213.331C210.04 211.591 225.62 209.123 241.712 208.834C241.152 211.613 252.355 211.793 252.52 210.171C252.544 210.183 252.569 210.191 252.594 210.202C249.825 220.52 252.324 235.368 257.327 241.766C264.336 250.144 281.934 252.547 289.737 247.157C299.803 242.182 310.274 217.21 307.333 208.913C312.671 207.221 317.948 207.729 323.488 208.591C322.22 212.174 320.03 220.994 323.18 221.759C322.602 239.271 338.538 250.197 353.228 243.014C365.943 237.045 370.389 218.15 368.833 206.682C370.416 209.74 383.707 206.41 377.511 203.535" fill="black"/>
<path d="M114 410C117.333 403 126 387 151.5 359.5L170 342L188 330C189.667 331 193 325.5 189.5 331C182.767 341.579 182 346 175 359.5C171.98 367.461 157.5 404.5 153 410C148.434 415.581 135.08 433 121 433C96 433 109 420.5 114 410Z" fill="#CBF688"/>
<path d="M390.5 378.5C391.5 374 373.5 345.5 356.5 332C354 333.333 349 342.5 351 349C353.297 356.465 361 367.5 373 377C385 386.5 389.5 383 390.5 378.5Z" fill="#CBF688"/>
</svg>
